<?xml version="1.0" standalone="no"?>
<!DOCTYPE svg PUBLIC "-//W3C//DTD SVG 20010904//EN"
 "http://www.w3.org/TR/2001/REC-SVG-20010904/DTD/svg10.dtd">
<svg version="1.0" xmlns="http://www.w3.org/2000/svg"
 width="640.000000pt" height="640.000000pt" viewBox="0 0 640.000000 640.000000"
 preserveAspectRatio="xMidYMid meet">
<metadata>
Created by potrace 1.14, written by Peter Selinger 2001-2017
</metadata>
<g transform="translate(0.000000,640.000000) scale(0.100000,-0.100000)"
fill="#000000" stroke="none">
<path d="M3200 6265 l0 -135 -65 0 -65 0 0 -65 0 -65 -70 0 -70 0 0 65 0 65
-65 0 -65 0 0 -65 0 -65 65 0 65 0 0 -65 0 -65 -65 0 -65 0 0 -70 0 -70 -65 0
-65 0 0 -65 0 -65 65 0 65 0 0 -65 0 -65 -135 0 -135 0 0 -70 0 -70 70 0 70 0
0 -65 0 -65 -70 0 -70 0 0 -65 0 -65 -65 0 -65 0 0 -70 0 -70 -65 0 -65 0 0
70 0 70 -135 0 -135 0 0 -70 0 -70 65 0 65 0 0 -130 0 -130 70 0 70 0 0 -70 0
-70 -70 0 -70 0 0 -130 0 -130 -65 0 -65 0 0 -70 0 -70 65 0 65 0 0 -65 0 -65
-65 0 -65 0 0 -135 0 -135 -65 0 -65 0 0 -65 0 -65 -70 0 -70 0 0 -135 0 -135
-65 0 -65 0 0 -65 0 -65 135 0 135 0 0 -65 0 -65 -70 0 -70 0 0 -70 0 -70 70
0 70 0 0 -65 0 -65 -70 0 -70 0 0 -65 0 -65 -130 0 -130 0 0 -200 0 -200 -135
0 -135 0 0 -135 0 -135 -65 0 -65 0 0 -65 0 -65 -70 0 -70 0 0 -70 0 -70 70 0
70 0 0 -65 0 -65 65 0 65 0 0 -65 0 -65 65 0 65 0 0 65 0 65 70 0 70 0 0 65 0
65 65 0 65 0 0 -130 0 -130 -65 0 -65 0 0 -135 0 -135 65 0 65 0 0 65 0 65 65
0 65 0 0 70 0 70 70 0 70 0 0 65 0 65 65 0 65 0 0 -65 0 -65 135 0 135 0 0 65
0 65 130 0 130 0 0 -65 0 -65 200 0 200 0 0 -400 0 -400 -65 0 -65 0 0 -70 0
-70 -65 0 -65 0 0 -65 0 -65 -70 0 -70 0 0 -65 0 -65 135 0 135 0 0 -70 0 -70
135 0 135 0 0 70 0 70 265 0 265 0 0 -70 0 -70 265 0 265 0 0 70 0 70 -130 0
-130 0 0 130 0 130 -70 0 -70 0 0 335 0 335 -65 0 -65 0 0 65 0 65 65 0 65 0
0 70 0 70 200 0 200 0 0 -70 0 -70 135 0 135 0 0 70 0 70 265 0 265 0 0 -70 0
-70 70 0 70 0 0 -65 0 -65 65 0 65 0 0 135 0 135 200 0 200 0 0 65 0 65 -135
0 -135 0 0 65 0 65 -65 0 -65 0 0 70 0 70 135 0 135 0 0 65 0 65 -70 0 -70 0
0 135 0 135 -65 0 -65 0 0 65 0 65 -65 0 -65 0 0 65 0 65 -70 0 -70 0 0 135 0
135 -65 0 -65 0 0 65 0 65 65 0 65 0 0 135 0 135 -130 0 -130 0 0 65 0 65 -70
0 -70 0 0 70 0 70 135 0 135 0 0 65 0 65 -65 0 -65 0 0 135 0 135 -70 0 -70 0
0 65 0 65 -65 0 -65 0 0 135 0 135 65 0 65 0 0 65 0 65 -65 0 -65 0 0 65 0 65
65 0 65 0 0 70 0 70 -65 0 -65 0 0 -70 0 -70 -65 0 -65 0 0 200 0 200 -70 0
-70 0 0 70 0 70 -65 0 -65 0 0 65 0 65 65 0 65 0 0 65 0 65 -130 0 -130 0 0
135 0 135 -70 0 -70 0 0 65 0 65 -65 0 -65 0 0 70 0 70 65 0 65 0 0 65 0 65
70 0 70 0 0 65 0 65 -70 0 -70 0 0 -65 0 -65 -65 0 -65 0 0 -65 0 -65 -65 0
-65 0 0 65 0 65 -70 0 -70 0 0 200 0 200 -65 0 -65 0 0 -135z m400 -600 l0
-65 -65 0 -65 0 0 65 0 65 65 0 65 0 0 -65z m1200 -2930 l0 -65 -65 0 -65 0 0
65 0 65 65 0 65 0 0 -65z"/>
</g>
</svg>
